<?xml version="1.0" encoding="utf-8"?>
<!-- Generator: Adobe Illustrator 25.0.0, SVG Export Plug-In . SVG Version: 6.00 Build 0)  -->
<svg version="1.1" id="Capa_1" xmlns="http://www.w3.org/2000/svg" xmlns:xlink="http://www.w3.org/1999/xlink" x="0px" y="0px"
	 viewBox="0 0 17.01 17.01" style="enable-background:new 0 0 17.01 17.01;" xml:space="preserve">
<style type="text/css">
	.st0{fill:#FFFFFF;}
</style>
<path class="st0" d="M14.4,17.01H2.63c-1.45,0-2.62-1.18-2.62-2.62V4.58c0-1.44,1.17-2.62,2.62-2.62h0.65V0.65
	C3.28,0.29,3.57,0,3.93,0s0.65,0.29,0.65,0.65v1.31h7.85V0.65c0-0.36,0.29-0.65,0.65-0.65s0.65,0.29,0.65,0.65v1.31h0.65
	c1.44,0,2.62,1.17,2.62,2.62v9.81C17.02,15.83,15.84,17.01,14.4,17.01z M1.32,14.39c0,0.72,0.59,1.31,1.31,1.31H14.4
	c0.72,0,1.31-0.59,1.31-1.31V7.85c0-0.72-0.59-1.31-1.31-1.31H2.63c-0.72,0-1.31,0.59-1.31,1.31V14.39z M2.63,5.23H14.4
	c0.48,0,0.92,0.13,1.31,0.35v-1c0-0.72-0.59-1.31-1.31-1.31H2.63c-0.72,0-1.31,0.59-1.31,1.31v1.01C1.7,5.36,2.15,5.23,2.63,5.23z
	 M10.48,13.74c-0.36,0-0.66-0.29-0.66-0.65s0.29-0.66,0.65-0.66h0.01c0.36,0,0.65,0.29,0.65,0.65
	C11.13,13.44,10.84,13.74,10.48,13.74z M8.52,13.74c-0.36,0-0.66-0.29-0.66-0.65s0.29-0.66,0.65-0.66h0.01
	c0.36,0,0.65,0.29,0.65,0.65C9.17,13.44,8.88,13.74,8.52,13.74z M6.56,13.74c-0.36,0-0.66-0.29-0.66-0.65s0.29-0.66,0.65-0.66h0.01
	c0.36,0,0.65,0.29,0.65,0.65C7.21,13.44,6.92,13.74,6.56,13.74z M4.6,13.74c-0.36,0-0.66-0.29-0.66-0.65s0.29-0.66,0.65-0.66H4.6
	c0.36,0,0.65,0.29,0.65,0.65C5.25,13.44,4.96,13.74,4.6,13.74z M12.45,11.78c-0.36,0-0.66-0.29-0.66-0.65s0.29-0.66,0.65-0.66h0.01
	c0.36,0,0.65,0.29,0.65,0.65C13.1,11.48,12.81,11.78,12.45,11.78z M10.48,11.78c-0.36,0-0.66-0.29-0.66-0.65s0.29-0.66,0.65-0.66
	h0.01c0.36,0,0.65,0.29,0.65,0.65C11.13,11.48,10.84,11.78,10.48,11.78z M8.52,11.78c-0.36,0-0.66-0.29-0.66-0.65
	s0.29-0.66,0.65-0.66h0.01c0.36,0,0.65,0.29,0.65,0.65C9.17,11.48,8.88,11.78,8.52,11.78z M6.56,11.78c-0.36,0-0.66-0.29-0.66-0.65
	s0.29-0.66,0.65-0.66h0.01c0.36,0,0.65,0.29,0.65,0.65C7.21,11.48,6.92,11.78,6.56,11.78z M4.6,11.78c-0.36,0-0.66-0.29-0.66-0.65
	s0.29-0.66,0.65-0.66H4.6c0.36,0,0.65,0.29,0.65,0.65C5.25,11.48,4.96,11.78,4.6,11.78z M12.45,9.82c-0.36,0-0.66-0.29-0.66-0.65
	s0.29-0.66,0.65-0.66h0.01c0.36,0,0.65,0.29,0.65,0.65C13.1,9.52,12.81,9.82,12.45,9.82z M10.48,9.82c-0.36,0-0.66-0.29-0.66-0.65
	s0.29-0.66,0.65-0.66h0.01c0.36,0,0.65,0.29,0.65,0.65C11.13,9.52,10.84,9.82,10.48,9.82z M8.52,9.82c-0.36,0-0.66-0.29-0.66-0.65
	c0-0.37,0.29-0.67,0.65-0.67h0.01c0.36,0,0.65,0.29,0.65,0.65S8.88,9.82,8.52,9.82z"/>
</svg>
