<?xml version="1.0" encoding="utf-8"?>
<!-- Generator: Adobe Illustrator 25.0.0, SVG Export Plug-In . SVG Version: 6.00 Build 0)  -->
<svg version="1.1" id="Capa_1" xmlns="http://www.w3.org/2000/svg" xmlns:xlink="http://www.w3.org/1999/xlink" x="0px" y="0px"
	 viewBox="0 0 17.01 17.01" style="enable-background:new 0 0 17.01 17.01;" xml:space="preserve">
<style type="text/css">
	.st0{fill:#FFFFFF;}
</style>
<path class="st0" d="M8.51,16.09L8.51,16.09c-1.81,0-3.59-0.47-5.14-1.36c-0.17-0.1-0.28-0.27-0.3-0.46c-0.91,0-1.79-0.14-2.66-0.45
	c-0.23-0.08-0.38-0.28-0.4-0.52c-0.06-0.69,0.13-1.39,0.52-1.96c0.46-0.67,1.15-1.12,1.95-1.27c0.6-0.11,1.2-0.05,1.75,0.19
	C5.26,8.96,6.82,8.2,8.51,8.2c0,0,0,0,0.01,0c1.68,0,3.24,0.76,4.28,2.06c0.45-0.19,0.94-0.27,1.43-0.23
	c1.67,0.14,2.92,1.6,2.78,3.27c-0.02,0.24-0.18,0.44-0.4,0.52c-0.86,0.3-1.79,0.45-2.66,0.45c-0.02,0.19-0.13,0.36-0.3,0.46
	C12.07,15.62,10.3,16.09,8.51,16.09z M4.24,13.82c1.31,0.69,2.79,1.07,4.26,1.05c1.48,0,2.93-0.36,4.24-1.05c0-0.05,0-0.11,0-0.17
	v-0.01c0-0.01,0-0.01,0-0.02c0-0.8-0.23-1.58-0.67-2.26l0,0C11.29,10.14,9.96,9.4,8.5,9.4c0,0,0,0-0.01,0
	c-1.46,0-2.8,0.73-3.58,1.96c0,0,0,0.01-0.01,0.01c0,0.01-0.01,0.01-0.01,0.02c-0.42,0.67-0.65,1.44-0.65,2.24c0,0.01,0,0.03,0,0.04
	C4.24,13.72,4.24,13.77,4.24,13.82z M1.23,12.8c0.6,0.17,1.22,0.26,1.84,0.25c0.07-0.61,0.23-1.2,0.5-1.75
	C3.29,11.21,3,11.2,2.7,11.25c-0.48,0.09-0.89,0.36-1.17,0.76C1.37,12.26,1.27,12.53,1.23,12.8z M13.93,13.05
	c0.66-0.01,1.24-0.08,1.84-0.25c-0.05-0.34-0.19-0.66-0.42-0.93c-0.32-0.37-0.76-0.6-1.24-0.64c-0.23-0.02-0.46,0.01-0.68,0.07
	C13.69,11.86,13.86,12.44,13.93,13.05z M13.96,8.8c-1.34,0-2.43-1.09-2.43-2.43s1.09-2.43,2.43-2.43s2.43,1.09,2.43,2.43
	S15.3,8.8,13.96,8.8z M13.96,5.16c-0.67,0-1.21,0.54-1.21,1.21s0.54,1.21,1.21,1.21s1.21-0.54,1.21-1.21S14.63,5.16,13.96,5.16z
	 M3.04,8.8c-1.34,0-2.43-1.09-2.43-2.43S1.7,3.95,3.04,3.95s2.43,1.09,2.43,2.43S4.37,8.8,3.04,8.8z M3.04,5.16
	c-0.67,0-1.21,0.54-1.21,1.21s0.54,1.21,1.21,1.21s1.21-0.54,1.21-1.21S3.71,5.16,3.04,5.16z M8.49,6.97
	c-1.67,0-3.04-1.36-3.04-3.04s1.37-3.03,3.04-3.03s3.04,1.36,3.04,3.04S10.17,6.97,8.49,6.97z M8.49,2.12c-1,0-1.82,0.82-1.82,1.82
	s0.82,1.83,1.82,1.83s1.82-0.82,1.82-1.82S9.5,2.12,8.49,2.12z"/>
</svg>
