<?xml version="1.0" encoding="utf-8"?>
<!-- Generator: Adobe Illustrator 25.0.0, SVG Export Plug-In . SVG Version: 6.00 Build 0)  -->
<svg version="1.1" id="Capa_1" xmlns="http://www.w3.org/2000/svg" xmlns:xlink="http://www.w3.org/1999/xlink" x="0px" y="0px"
	 viewBox="0 0 17.01 17.01" style="enable-background:new 0 0 17.01 17.01;" xml:space="preserve">
<style type="text/css">
	.st0{fill:#FFFFFF;}
</style>
<g>
	<path class="st0" d="M17.01,8.53c0,1.94,0,3.89,0,5.83c0,0.83-0.27,1.55-0.93,2.08C15.63,16.81,15.1,17,14.52,17
		c-0.96,0-1.92,0.02-2.89-0.02c-1.13-0.04-2.13-1.01-2.25-2.13c-0.02-0.2-0.04-0.41-0.04-0.61c0-3.88,0-7.76,0-11.64
		c0-1.18,0.69-2.14,1.77-2.47c0.23-0.07,0.48-0.11,0.72-0.11C12.8,0,13.76-0.01,14.72,0.03c1.19,0.05,2.21,1.08,2.26,2.27
		c0.04,0.76,0.02,1.53,0.02,2.29C17.01,5.9,17.01,7.21,17.01,8.53z M15.3,8.53c0-1.96,0-3.92,0-5.87c0-0.65-0.29-0.93-0.94-0.94
		c-0.32,0-0.64,0-0.96,0c-0.54,0-1.09,0-1.63,0.02c-0.31,0.01-0.54,0.18-0.64,0.48c-0.05,0.15-0.07,0.31-0.07,0.47
		c0,3.88,0,7.77,0,11.65c0,0.05,0,0.11,0,0.16c0.03,0.48,0.31,0.77,0.79,0.8c0.26,0.02,0.53,0.01,0.8,0.01c0.64,0,1.29,0,1.93-0.02
		c0.37-0.01,0.64-0.28,0.7-0.62c0.02-0.12,0.02-0.25,0.02-0.38C15.3,12.36,15.3,10.44,15.3,8.53z"/>
	<path class="st0" d="M7.66,11.92c0,0.83,0,1.66,0,2.49c0,1.32-0.81,2.31-2.1,2.56C5.43,16.99,5.3,17,5.16,17
		c-0.96,0-1.92,0.02-2.89-0.02c-1.17-0.05-2.21-1.08-2.25-2.26C-0.01,13.7,0,12.67,0,11.64c0-0.86-0.01-1.71,0.02-2.57
		c0.05-1.12,1.01-2.14,2.13-2.23C2.9,6.78,3.66,6.8,4.42,6.8c0.42,0,0.84-0.01,1.25,0.07c1.2,0.25,1.99,1.23,2,2.46
		C7.67,10.19,7.66,11.06,7.66,11.92z M1.71,11.9c0,0.83,0,1.66,0,2.49c0,0.61,0.29,0.91,0.9,0.91c0.81,0.01,1.62,0.01,2.43,0
		c0.61,0,0.91-0.32,0.91-0.93c0-1.65,0-3.29,0-4.94c0-0.61-0.32-0.93-0.94-0.93c-0.78,0-1.55,0-2.33,0C2,8.51,1.71,8.8,1.71,9.49
		C1.71,10.29,1.71,11.09,1.71,11.9z"/>
	<path class="st0" d="M3.82,5.08c-0.54,0-1.08,0.05-1.61-0.01C0.89,4.94-0.04,3.81,0,2.5c0.05-1.27,0.84-2.2,2.08-2.45
		c0.1-0.02,0.2-0.03,0.3-0.03c0.97,0,1.94-0.03,2.9,0.01C6.48,0.08,7.34,0.86,7.6,2.02C7.88,3.24,7.22,4.5,6.06,4.93
		c-0.3,0.11-0.63,0.16-0.95,0.18C4.68,5.14,4.25,5.12,3.82,5.12C3.82,5.11,3.82,5.09,3.82,5.08z M3.84,1.72
		C3.84,1.72,3.84,1.71,3.84,1.72c-0.39,0-0.78,0-1.17,0c-0.13,0-0.27,0.01-0.39,0.04c-0.41,0.12-0.6,0.47-0.54,0.96
		C1.78,3.12,2.09,3.4,2.54,3.4c0.86,0.01,1.72,0.01,2.59,0c0.41,0,0.7-0.24,0.79-0.6c0.15-0.61-0.19-1.07-0.83-1.09
		C4.67,1.71,4.26,1.72,3.84,1.72z"/>
</g>
</svg>
