<?xml version="1.0" encoding="utf-8"?>
<!-- Generator: Adobe Illustrator 25.0.0, SVG Export Plug-In . SVG Version: 6.00 Build 0)  -->
<svg version="1.1" id="Capa_1" xmlns="http://www.w3.org/2000/svg" xmlns:xlink="http://www.w3.org/1999/xlink" x="0px" y="0px"
	 viewBox="0 0 17.01 17.01" style="enable-background:new 0 0 17.01 17.01;" xml:space="preserve">
<style type="text/css">
	.st0{fill:#FFFFFF;}
</style>
<path class="st0" d="M10.63,17.01h-7.9c-0.84,0-1.52-0.68-1.52-1.52V6.38c0-0.84,0.68-1.52,1.52-1.52h2.13V3.73
	c0-1.25,0.93-2.28,2.16-2.38C7.2,1.34,7.38,1.32,7.56,1.31C7.97,0.51,8.79,0,9.72,0h1.21c0.93,0,1.75,0.51,2.16,1.31
	c0.18,0.01,0.36,0.03,0.54,0.04c1.23,0.1,2.16,1.13,2.16,2.38v8.42c0,1.34-1.09,2.43-2.43,2.43h-1.21v0.91
	C12.15,16.33,11.47,17.01,10.63,17.01z M2.73,6.07c-0.17,0-0.3,0.14-0.3,0.3v9.11c0,0.17,0.14,0.3,0.3,0.3h7.9
	c0.17,0,0.3-0.14,0.3-0.3V6.38c0-0.17-0.14-0.3-0.3-0.3H2.73z M12.15,13.36h1.21c0.67,0,1.21-0.54,1.21-1.21V3.73
	c0-0.62-0.45-1.12-1.04-1.17c-0.06,0-0.12-0.01-0.18-0.01c-0.06,0.61-0.58,1.1-1.21,1.1H8.5c-0.63,0-1.15-0.48-1.21-1.1
	c-0.06,0-0.12,0.01-0.18,0.01C6.52,2.61,6.07,3.11,6.07,3.73v1.13h4.56c0.84,0,1.52,0.68,1.52,1.52V13.36z M8.55,2.08
	C8.52,2.19,8.5,2.31,8.5,2.43h3.64c0-0.12-0.02-0.24-0.05-0.36c0,0,0,0,0,0c-0.16-0.51-0.62-0.86-1.16-0.86H9.72
	c-0.53,0-1,0.34-1.16,0.85C8.56,2.07,8.56,2.07,8.55,2.08z M4.26,13.98c-0.34,0-0.61-0.27-0.61-0.61c0-0.34,0.27-0.61,0.61-0.61
	h0.01c0.34,0,0.61,0.27,0.61,0.61C4.87,13.7,4.59,13.98,4.26,13.98z M9.11,13.97H6.07c-0.34,0-0.61-0.27-0.61-0.61
	c0-0.34,0.27-0.61,0.61-0.61h3.04c0.34,0,0.61,0.27,0.61,0.61C9.72,13.7,9.45,13.97,9.11,13.97z M4.26,11.55
	c-0.34,0-0.61-0.27-0.61-0.61c0-0.34,0.27-0.61,0.61-0.61h0.01c0.34,0,0.61,0.27,0.61,0.61C4.87,11.27,4.59,11.55,4.26,11.55z
	 M9.11,11.54H6.07c-0.34,0-0.61-0.27-0.61-0.61c0-0.34,0.27-0.61,0.61-0.61h3.04c0.34,0,0.61,0.27,0.61,0.61
	C9.72,11.27,9.45,11.54,9.11,11.54z M4.26,9.12c-0.34,0-0.61-0.27-0.61-0.61c0-0.34,0.27-0.61,0.61-0.61h0.01
	c0.34,0,0.61,0.27,0.61,0.61C4.87,8.84,4.59,9.12,4.26,9.12z M9.11,9.11H6.07c-0.34,0-0.61-0.27-0.61-0.61
	c0-0.34,0.27-0.61,0.61-0.61h3.04c0.34,0,0.61,0.27,0.61,0.61C9.72,8.84,9.45,9.11,9.11,9.11z"/>
</svg>
