<?xml version="1.0" encoding="utf-8"?>
<!-- Generator: Adobe Illustrator 25.0.0, SVG Export Plug-In . SVG Version: 6.00 Build 0)  -->
<svg version="1.1" id="Layer_1" xmlns="http://www.w3.org/2000/svg" xmlns:xlink="http://www.w3.org/1999/xlink" x="0px" y="0px"
	 viewBox="0 0 288 288" style="enable-background:new 0 0 288 288;" xml:space="preserve">
<style type="text/css">
	.st0{fill:#FF8B00;}
	.st1{fill:#FFC800;}
	.st2{fill:#133956;}
</style>
<g>
	<path class="st0" d="M236.81,59.16c-0.57-2.85-2.03-5.46-4.11-7.73c-2.05-2.27-4.77-4.18-7.85-5.31c-0.74-0.35-1.56-0.5-2.34-0.74
		l-1.19-0.32c-0.4-0.08-0.81-0.12-1.21-0.18c-0.81-0.1-1.61-0.23-2.42-0.27c-0.8-0.01-1.61,0.02-2.41,0.04
		c-0.8-0.01-1.58,0.07-2.35,0.23l-2.3,0.4c-1.49,0.4-2.93,0.89-4.31,1.45c-0.24,0.1-0.41,0.31-0.42,0.57
		c-0.01,0.36,0.31,0.67,0.72,0.69l0.1,0c1.51,0.06,2.95-0.04,4.37-0.04l2.12,0.09c0.35,0.02,0.7,0.03,1.05,0.02
		c0.35,0.01,0.69,0.08,1.03,0.12c0.68,0.09,1.36,0.18,2.04,0.24c0.67,0.11,1.32,0.29,1.97,0.41l0.98,0.2l0.94,0.31
		c0.61,0.23,1.29,0.32,1.86,0.63c2.45,0.92,4.67,2.29,6.74,3.91c2.05,1.63,3.92,3.61,5.62,5.71l0.06,0.07
		c0.16,0.2,0.44,0.31,0.72,0.27C236.62,59.85,236.88,59.52,236.81,59.16z"/>
	<path class="st0" d="M219.93,52.48c-0.44-0.15-1.01-0.01-1.28,0.33c-10.68,13.01-23.41,23.31-36.76,30.86
		c-1.48,0.84-2.97,1.65-4.47,2.42c-1.43,0.73-2.85,1.47-4.29,2.14c-14.82,6.85-29.79,10.26-43.58,10.67c-1.51,0.04-3,0.04-4.48,0.01
		c-3.36-1.34-6.18-3.51-8.15-6.2c-1.79-2.43-2.88-5.28-3.07-8.3c-0.17-2.66-0.33-5.32-0.5-7.98c-0.13-2.02-0.75-3.91-1.77-5.59
		c-2.72-4.51-8.21-7.32-13.86-7.09c-3.95,0.16-7.44,1.72-9.89,4.13c-2.49,2.45-3.42,5.79-3.7,9.39c-0.32,4.13,0.13,7.82,2.41,10.76
		c-5.4-3.45-10.22-7.66-14.28-12.61c-0.1-0.12-0.26-0.15-0.39-0.06c-0.14,0.11-0.18,0.34-0.09,0.52
		c4.82,9.02,12.68,16.58,22.14,21.74c10.3,5.7,22.95,8.78,36.53,8.83c15.19,0,31.92-3.8,47.58-12.03
		c17.59-9.11,33.53-23.58,42.26-41.18C220.46,52.94,220.31,52.62,219.93,52.48z M100.88,92.71c-1.05-2.06-1.78-4.22-2.19-6.36
		c-0.74-3.91-0.56-7.8,0.05-11.56c0.03,3.82,0.53,7.63,1.85,11.18c1.2,3.29,3.17,6.3,5.78,8.59
		C104.54,93.99,102.71,93.37,100.88,92.71z"/>
</g>
<g>
	<path class="st1" d="M83.47,41.52v15.3H60.42v-5.51c0.75-0.2,1.23-0.52,1.45-0.94c0.22-0.42,0.33-1.25,0.33-2.47V31.73
		c0-1.26-0.1-2.1-0.31-2.52c-0.2-0.42-0.7-0.72-1.48-0.89V22.8h11.37v5.51c-0.71,0.17-1.19,0.48-1.43,0.92
		c-0.24,0.44-0.36,1.27-0.36,2.5v18.72h2.09c1.97,0,3.2-0.2,3.7-0.59c0.49-0.39,0.74-1.33,0.74-2.83v-5.51H83.47z"/>
	<path class="st1" d="M109.79,31.73V45.9c0,2.11-0.07,3.57-0.2,4.39c-0.14,0.82-0.54,1.79-1.22,2.93c-0.68,1.14-1.87,2.1-3.57,2.88
		c-1.7,0.78-3.67,1.17-5.92,1.17c-3.57,0-6.3-0.82-8.19-2.47c-1.89-1.65-2.83-4.04-2.83-7.17V45.7V31.73c0-1.26-0.1-2.1-0.31-2.52
		c-0.2-0.42-0.7-0.72-1.48-0.89V22.8h11.37v5.51c-0.71,0.17-1.19,0.48-1.43,0.92c-0.24,0.44-0.36,1.27-0.36,2.5V45.9
		c0,1.6,0.29,2.75,0.87,3.47c0.58,0.71,1.53,1.07,2.86,1.07c1.29,0,2.21-0.35,2.75-1.05c0.54-0.7,0.82-1.88,0.82-3.54V31.73
		c0-1.26-0.1-2.1-0.31-2.52c-0.2-0.42-0.7-0.72-1.48-0.89V22.8h10.4v5.51c-0.71,0.17-1.19,0.48-1.43,0.92
		C109.91,29.67,109.79,30.5,109.79,31.73z"/>
	<path class="st1" d="M132.59,56.82l-8.72-17.9v8.98c0,1.22,0.11,2.05,0.33,2.47c0.22,0.43,0.71,0.74,1.45,0.94v5.51h-10.71v-5.51
		c0.75-0.2,1.23-0.52,1.45-0.94c0.22-0.42,0.33-1.25,0.33-2.47V31.73c0-1.26-0.1-2.1-0.31-2.52c-0.2-0.42-0.7-0.72-1.48-0.89V22.8
		h8.93l8.72,17.65v-8.72c0-1.26-0.1-2.1-0.31-2.52c-0.2-0.42-0.7-0.72-1.48-0.89V22.8h10.71v5.51c-0.71,0.17-1.19,0.48-1.43,0.92
		c-0.24,0.44-0.36,1.27-0.36,2.5v25.09H132.59z"/>
	<path class="st1" d="M167.58,43.3v11.54c-2.21,0.95-4.17,1.63-5.89,2.03c-1.72,0.41-3.48,0.61-5.28,0.61
		c-4.9,0-7.92-0.86-9.08-2.57c-1.16-1.71-1.82-2.96-1.99-3.74c-0.17-0.78-0.26-1.95-0.26-3.51v-16.5c0-6.04,3.76-9.07,11.27-9.07
		c4.01,0,7.75,0.83,11.22,2.5v9.59h-7.4V33.2c0-2.82-1.19-4.23-3.57-4.23c-2.48,0-3.72,1.58-3.72,4.73v12.31
		c0,1.63,0.29,2.8,0.87,3.51c0.58,0.71,1.53,1.07,2.86,1.07c1.29,0,2.21-0.35,2.75-1.04c0.54-0.69,0.82-1.87,0.82-3.52V43.3H167.58z
		"/>
	<path class="st1" d="M181.09,36.42h7.24v-4.69c0-1.26-0.1-2.1-0.31-2.52c-0.2-0.42-0.7-0.72-1.48-0.89V22.8h11.37v5.51
		c-0.71,0.17-1.19,0.48-1.43,0.92c-0.24,0.44-0.36,1.27-0.36,2.5v16.17c0,1.22,0.11,2.05,0.33,2.47c0.22,0.43,0.71,0.74,1.45,0.94
		v5.51h-11.37v-5.51c0.75-0.2,1.23-0.52,1.45-0.94c0.22-0.42,0.33-1.25,0.33-2.47v-5.71h-7.24v5.71c0,1.22,0.11,2.05,0.33,2.47
		c0.22,0.43,0.71,0.74,1.45,0.94v5.51H171.5v-5.51c0.75-0.2,1.23-0.52,1.45-0.94c0.22-0.42,0.33-1.25,0.33-2.47V31.73
		c0-1.26-0.1-2.1-0.31-2.52c-0.2-0.42-0.7-0.72-1.48-0.89V22.8h11.37v5.51c-0.71,0.17-1.19,0.48-1.43,0.92
		c-0.24,0.44-0.36,1.27-0.36,2.5V36.42z"/>
</g>
<g>
	<path class="st2" d="M138.02,80.37l-0.41-5.31l-0.93-8.69h-0.19l-4.85,11.98h-1.8l-4.6-11.98h-0.22l-0.93,8.52l-0.46,5.47h-1.85
		l1.82-17.46h2.48l0.9,2.67l3.79,9.94h0.16l3.98-10.1l0.9-2.51h2.45l1.72,17.46H138.02z"/>
	<path class="st2" d="M154.55,80.37l-0.41-1.74l-0.98-3l-3.92-0.08l-3.54,0.08l-1.06,2.89l-0.44,1.85h-2.18l6.4-17.46h2.53
		l5.83,17.46H154.55z M149.73,65.17h-0.19l-3.16,8.61l3.05,0.05l3.13-0.05L149.73,65.17z"/>
	<path class="st2" d="M168.52,64.82l-3.05-0.16h-1.77l-0.08,10.27l0.08,5.45h-2.21l0.16-5.26l-0.14-10.46h-1.77l-3.1,0.16
		l-0.14-0.22l0.16-1.69h11.85l0.16,0.22L168.52,64.82z"/>
	<path class="st2" d="M181.59,80.37h-9.8l0.14-5.26l-0.14-12.2h9.83l0.11,0.22l-0.16,1.69l-4.11-0.08l-3.46,0.05l-0.05,5.72
		l3.27,0.05l2.89-0.08l0.16,0.19l-0.19,1.69l-3.05-0.05l-3.1,0.03l-0.03,2.59l0.08,3.62l3.46,0.03l4.19-0.11l0.14,0.22L181.59,80.37
		z"/>
</g>
</svg>
