<?xml version="1.0" encoding="utf-8"?>
<!-- Generator: Adobe Illustrator 25.0.0, SVG Export Plug-In . SVG Version: 6.00 Build 0)  -->
<svg version="1.1" id="Layer_1" xmlns="http://www.w3.org/2000/svg" xmlns:xlink="http://www.w3.org/1999/xlink" x="0px" y="0px"
	 viewBox="0 0 176.4 84.4" style="enable-background:new 0 0 176.4 84.4;" xml:space="preserve">
<style type="text/css">
	.st0{fill:#FF8B00;}
	.st1{fill:#FFC800;}
	.st2{fill:#133956;}
</style>
<g>
	<g>
		<path class="st0" d="M176.4,37.1c-0.6-2.8-2-5.5-4.1-7.7c-2.1-2.3-4.8-4.2-7.9-5.3c-0.7-0.3-1.6-0.5-2.3-0.7l-1.2-0.3
			c-0.4-0.1-0.8-0.1-1.2-0.2c-0.8-0.1-1.6-0.2-2.4-0.3c-0.8,0-1.6,0-2.4,0c-0.8,0-1.6,0.1-2.4,0.2l-2.3,0.4
			c-1.5,0.4-2.9,0.9-4.3,1.5c-0.2,0.1-0.4,0.3-0.4,0.6c0,0.4,0.3,0.7,0.7,0.7h0.1c1.5,0.1,2.9,0,4.4,0l2.1,0.1c0.4,0,0.7,0,1.1,0
			c0.4,0,0.7,0.1,1,0.1c0.7,0.1,1.4,0.2,2,0.2c0.7,0.1,1.3,0.3,2,0.4l1,0.2l0.9,0.3c0.6,0.2,1.3,0.3,1.9,0.6
			c2.4,0.9,4.7,2.3,6.7,3.9c2.1,1.6,3.9,3.6,5.6,5.7l0.1,0.1c0.2,0.2,0.4,0.3,0.7,0.3C176.2,37.8,176.5,37.4,176.4,37.1z"/>
		<path class="st0" d="M159.5,30.4c-0.4-0.2-1,0-1.3,0.3c-10.7,13-23.4,23.3-36.8,30.9c-1.5,0.8-3,1.7-4.5,2.4
			c-1.4,0.7-2.9,1.5-4.3,2.1C97.9,73,82.9,76.4,69.1,76.8c-1.5,0-3,0-4.5,0c-3.4-1.3-6.2-3.5-8.2-6.2c-1.8-2.4-2.9-5.3-3.1-8.3
			c-0.2-2.7-0.3-5.3-0.5-8c-0.1-2-0.8-3.9-1.8-5.6c-2.7-4.5-8.2-7.3-13.9-7.1c-3.9,0.2-7.4,1.7-9.9,4.1c-2.5,2.4-3.4,5.8-3.7,9.4
			c-0.3,4.1,0.1,7.8,2.4,10.8c-5.4-3.5-10.2-7.7-14.3-12.6c-0.1-0.1-0.3-0.2-0.4-0.1c-0.1,0.1-0.2,0.3-0.1,0.5
			c4.8,9,12.7,16.6,22.1,21.7c10.3,5.7,22.9,8.8,36.5,8.8c15.2,0,31.9-3.8,47.6-12c17.6-9.1,33.5-23.6,42.3-41.2
			C160.1,30.8,159.9,30.5,159.5,30.4z M40.5,70.6c-1.1-2.1-1.8-4.2-2.2-6.4c-0.7-3.9-0.6-7.8,0.1-11.6c0,3.8,0.5,7.6,1.8,11.2
			c1.2,3.3,3.2,6.3,5.8,8.6C44.1,71.9,42.3,71.3,40.5,70.6z"/>
	</g>
	<g>
		<path class="st1" d="M23.1,19.4v15.3H0v-5.5c0.8-0.2,1.2-0.5,1.5-0.9s0.3-1.2,0.3-2.5V9.6c0-1.3-0.1-2.1-0.3-2.5
			C1.3,6.7,0.8,6.4,0,6.2V0.7h11.4v5.5c-0.7,0.2-1.2,0.5-1.4,0.9S9.6,8.4,9.6,9.6v18.7h2.1c2,0,3.2-0.2,3.7-0.6
			c0.5-0.4,0.7-1.3,0.7-2.8v-5.5C16.1,19.4,23.1,19.4,23.1,19.4z"/>
		<path class="st1" d="M49.4,9.6v14.2c0,2.1-0.1,3.6-0.2,4.4C49,29,48.6,30,48,31.1s-1.9,2.1-3.6,2.9c-1.7,0.8-3.7,1.2-5.9,1.2
			c-3.6,0-6.3-0.8-8.2-2.5s-2.8-4-2.8-7.2v-1.9v-14c0-1.3-0.1-2.1-0.3-2.5c-0.2-0.4-0.7-0.7-1.5-0.9V0.7H37v5.5
			c-0.7,0.2-1.2,0.5-1.4,0.9s-0.4,1.3-0.4,2.5v14.2c0,1.6,0.3,2.8,0.9,3.5c0.6,0.7,1.5,1.1,2.9,1.1c1.3,0,2.2-0.3,2.8-1
			s0.8-1.9,0.8-3.5V9.6c0-1.3-0.1-2.1-0.3-2.5c-0.2-0.4-0.7-0.7-1.5-0.9V0.7h10.4v5.5c-0.7,0.2-1.2,0.5-1.4,0.9
			C49.5,7.6,49.4,8.4,49.4,9.6z"/>
		<path class="st1" d="M72.2,34.7l-8.7-17.9v9c0,1.2,0.1,2,0.3,2.5c0.2,0.4,0.7,0.7,1.4,0.9v5.5H54.5v-5.5c0.8-0.2,1.2-0.5,1.4-0.9
			c0.2-0.4,0.3-1.2,0.3-2.5V9.6c0-1.3-0.1-2.1-0.3-2.5c-0.2-0.4-0.7-0.7-1.5-0.9V0.7h8.9l8.7,17.6V9.6c0-1.3-0.1-2.1-0.3-2.5
			c-0.2-0.4-0.7-0.7-1.5-0.9V0.7h10.7v5.5c-0.7,0.2-1.2,0.5-1.4,0.9c-0.2,0.4-0.4,1.3-0.4,2.5v25.1H72.2z"/>
		<path class="st1" d="M107.2,21.2v11.5c-2.2,1-4.2,1.6-5.9,2c-1.7,0.4-3.5,0.6-5.3,0.6c-4.9,0-7.9-0.9-9.1-2.6s-1.8-3-2-3.7
			c-0.2-0.8-0.3-2-0.3-3.5V9.1c0-6,3.8-9.1,11.3-9.1c4,0,7.8,0.8,11.2,2.5v9.6h-7.4v-1c0-2.8-1.2-4.2-3.6-4.2
			c-2.5,0-3.7,1.6-3.7,4.7v12.3c0,1.6,0.3,2.8,0.9,3.5s1.5,1.1,2.9,1.1c1.3,0,2.2-0.3,2.8-1c0.5-0.7,0.8-1.9,0.8-3.5v-2.7H107.2z"/>
		<path class="st1" d="M120.7,14.3h7.2V9.6c0-1.3-0.1-2.1-0.3-2.5c-0.2-0.4-0.7-0.7-1.5-0.9V0.7h11.4v5.5c-0.7,0.2-1.2,0.5-1.4,0.9
			c-0.2,0.4-0.4,1.3-0.4,2.5v16.2c0,1.2,0.1,2,0.3,2.5c0.2,0.4,0.7,0.7,1.4,0.9v5.5h-11.4v-5.5c0.8-0.2,1.2-0.5,1.4-0.9
			s0.3-1.2,0.3-2.5v-5.7h-7.2v5.7c0,1.2,0.1,2,0.3,2.5c0.2,0.4,0.7,0.7,1.4,0.9v5.5h-11.4v-5.5c0.8-0.2,1.2-0.5,1.4-0.9
			s0.3-1.2,0.3-2.5V9.6c0-1.3-0.1-2.1-0.3-2.5c-0.2-0.4-0.7-0.7-1.5-0.9V0.7h11.4v5.5c-0.7,0.2-1.2,0.5-1.4,0.9
			c-0.2,0.4-0.4,1.3-0.4,2.5L120.7,14.3L120.7,14.3z"/>
	</g>
	<g>
		<path class="st2" d="M77.6,58.3L77.2,53l-0.9-8.7h-0.2l-4.9,12h-1.8l-4.6-12h-0.2l-0.9,8.5l-0.5,5.5h-1.8l1.8-17.5h2.5l0.9,2.7
			l3.8,9.9h0.2l4-10.1l0.9-2.5h2.4l1.7,17.5L77.6,58.3L77.6,58.3z"/>
		<path class="st2" d="M94.1,58.3l-0.4-1.7l-1-3l-3.9-0.1l-3.5,0.1l-1.1,2.9l-0.4,1.8h-2.2L88,40.8h2.5l5.8,17.5H94.1z M89.3,43.1
			h-0.2L86,51.7l3.1,0.1l3.1-0.1L89.3,43.1z"/>
		<path class="st2" d="M108.1,42.7l-3.1-0.2h-1.8l-0.1,10.3l0.1,5.4h-2.2l0.2-5.3l-0.1-10.5h-1.8l-3.1,0.2l-0.1-0.2l0.2-1.7h11.9
			l0.2,0.2L108.1,42.7z"/>
		<path class="st2" d="M121.2,58.3h-9.8l0.1-5.3l-0.1-12.2h9.8l0.1,0.2l-0.2,1.7l-4.1-0.1l-3.5,0.1l-0.1,5.7l3.3,0.1l2.9-0.1
			l0.2,0.2l-0.2,1.7l-3.1-0.1l-3.1,0l0,2.6l0.1,3.6l3.5,0l4.2-0.1l0.1,0.2L121.2,58.3z"/>
	</g>
</g>
</svg>
