<?xml version="1.0" encoding="utf-8"?>
<!-- Generator: Adobe Illustrator 25.0.0, SVG Export Plug-In . SVG Version: 6.00 Build 0)  -->
<svg version="1.1" id="Capa_1" xmlns="http://www.w3.org/2000/svg" xmlns:xlink="http://www.w3.org/1999/xlink" x="0px" y="0px"
	 viewBox="0 0 17.01 17.01" style="enable-background:new 0 0 17.01 17.01;" xml:space="preserve">
<style type="text/css">
	.st0{fill:#FFFFFF;}
</style>
<g>
	<g>
		<path class="st0" d="M1.88,12.74C2.2,9.62,4.61,7.07,7.9,6.73c0-0.22,0-0.44,0-0.66c0-0.36,0.26-0.62,0.6-0.62
			c0.35,0,0.62,0.27,0.62,0.62c0,0.21,0,0.43,0,0.62c3.43,0.59,5.44,2.58,6.04,6.03c0.03,0,0.09,0.01,0.17,0.01c0.35,0,0.7,0,1.05,0
			c0.37,0.01,0.63,0.26,0.64,0.59c0.01,0.36-0.24,0.62-0.61,0.64c-0.01,0-0.01,0-0.02,0c-0.16,0.01-0.35-0.03-0.45,0.05
			c-0.1,0.07-0.1,0.28-0.15,0.42c-0.12,0.39-0.25,0.8-0.37,1.19c-0.27,0.86-0.93,1.35-1.84,1.35c-3.38,0-6.77,0-10.15,0
			c-0.9,0-1.56-0.5-1.83-1.36c-0.17-0.5-0.32-0.99-0.47-1.5c-0.04-0.11-0.08-0.17-0.21-0.16c-0.11,0.01-0.23,0.01-0.34,0
			c-0.36-0.04-0.6-0.29-0.59-0.64c0.01-0.33,0.27-0.58,0.62-0.59c0.35-0.01,0.7,0,1.05,0C1.74,12.74,1.8,12.74,1.88,12.74z
			 M13.89,12.73c-0.29-2.68-2.7-5.02-5.83-4.78c-2.72,0.21-4.7,2.42-4.93,4.78C6.71,12.73,10.29,12.73,13.89,12.73z M14.62,14
			c-4.1,0-8.16,0-12.25,0c0.13,0.41,0.25,0.81,0.37,1.2c0.14,0.45,0.31,0.57,0.79,0.57c2.27,0,4.54,0,6.81,0c1.07,0,2.14,0,3.2,0
			c0.39,0,0.58-0.15,0.7-0.51c0.08-0.27,0.17-0.53,0.25-0.79C14.54,14.31,14.57,14.15,14.62,14z"/>
		<path class="st0" d="M8.59,8.83c1.58,0.09,2.8,0.75,3.67,2.02c0.22,0.31,0.16,0.69-0.13,0.88c-0.29,0.2-0.66,0.12-0.87-0.19
			c-0.51-0.73-1.18-1.21-2.06-1.41c-0.27-0.06-0.53-0.06-0.79-0.09C8.14,10,7.92,9.77,7.9,9.51C7.87,9.2,8.04,8.94,8.33,8.86
			C8.42,8.83,8.53,8.83,8.59,8.83z"/>
	</g>
	<path class="st0" d="M5.74,5.95c-0.14,0-0.27-0.06-0.37-0.17C5.19,5.57,5.2,5.26,5.41,5.07C5.51,4.98,6,4.49,5.62,4.03
		c-0.8-0.94-0.16-2.14,0.34-2.71c0.18-0.21,0.5-0.22,0.7-0.04c0.21,0.18,0.23,0.5,0.04,0.71C6.7,1.99,5.95,2.88,6.38,3.39
		c0.83,0.98,0.16,2.02-0.3,2.43C5.98,5.9,5.86,5.95,5.74,5.95z"/>
	<path class="st0" d="M8.5,4.82c-0.14,0-0.27-0.06-0.37-0.17C7.95,4.44,7.96,4.13,8.17,3.94c0.1-0.09,0.59-0.58,0.21-1.04
		C7.58,1.96,8.22,0.76,8.72,0.2c0.18-0.21,0.5-0.22,0.7-0.04c0.21,0.18,0.23,0.5,0.04,0.71c-0.01,0.01-0.76,0.89-0.32,1.4
		C9.97,3.23,9.3,4.28,8.84,4.69C8.74,4.78,8.62,4.82,8.5,4.82z"/>
	<path class="st0" d="M10.79,6.56c-0.14,0-0.27-0.06-0.37-0.17c-0.18-0.21-0.17-0.52,0.04-0.71c0.1-0.09,0.59-0.58,0.21-1.04
		C9.87,3.7,10.5,2.5,11,1.94c0.18-0.21,0.5-0.22,0.7-0.04c0.21,0.18,0.23,0.5,0.04,0.71C11.74,2.61,11,3.49,11.43,4
		c0.83,0.98,0.16,2.02-0.3,2.43C11.03,6.52,10.91,6.56,10.79,6.56z"/>
</g>
</svg>
