<?xml version="1.0" encoding="utf-8"?>
<!-- Generator: Adobe Illustrator 25.0.0, SVG Export Plug-In . SVG Version: 6.00 Build 0)  -->
<svg version="1.1" id="Capa_1" xmlns="http://www.w3.org/2000/svg" xmlns:xlink="http://www.w3.org/1999/xlink" x="0px" y="0px"
	 viewBox="0 0 17.01 17.01" style="enable-background:new 0 0 17.01 17.01;" xml:space="preserve">
<style type="text/css">
	.st0{fill:#FFFFFF;}
</style>
<path class="st0" d="M8.5,17.01c-4.69,0-8.5-3.82-8.5-8.5S3.82,0,8.5,0s8.5,3.82,8.5,8.5S13.19,17.01,8.5,17.01z M8.5,1.31
	c-3.97,0-7.2,3.23-7.2,7.2s3.23,7.2,7.2,7.2s7.2-3.23,7.2-7.2S12.47,1.31,8.5,1.31z M7.85,11.77c-0.17,0-0.34-0.07-0.46-0.19
	L5.42,9.62c-0.26-0.26-0.26-0.67,0-0.93c0.26-0.26,0.67-0.26,0.93,0l1.42,1.42l2.82-3.95c0.21-0.29,0.62-0.36,0.91-0.15
	c0.29,0.21,0.36,0.62,0.15,0.91L8.38,11.5c-0.11,0.16-0.29,0.26-0.48,0.27C7.89,11.77,7.87,11.77,7.85,11.77z"/>
</svg>
